<?xml version="1.0" encoding="UTF-8" standalone="no"?>
<!-- Created with Inkscape (http://www.inkscape.org/) -->

<svg
   version="1.1"
   id="svg2"
   xml:space="preserve"
   width="1365.3333"
   height="1365.3333"
   viewBox="0 0 1365.3333 1365.3333"
   sodipodi:docname="logo.svg"
   inkscape:version="1.1.2 (0a00cf5339, 2022-02-04)"
   xmlns:inkscape="http://www.inkscape.org/namespaces/inkscape"
   xmlns:sodipodi="http://sodipodi.sourceforge.net/DTD/sodipodi-0.dtd"
   xmlns="http://www.w3.org/2000/svg"
   xmlns:svg="http://www.w3.org/2000/svg"><defs
     id="defs6"><clipPath
       clipPathUnits="userSpaceOnUse"
       id="clipPath16"><path
         d="M 0,1024 H 1024 V 0 H 0 Z"
         id="path14" /></clipPath></defs><sodipodi:namedview
     id="namedview4"
     pagecolor="#ffffff"
     bordercolor="#666666"
     borderopacity="1.0"
     inkscape:pageshadow="2"
     inkscape:pageopacity="0.0"
     inkscape:pagecheckerboard="0"
     showgrid="false"
     inkscape:zoom="0.40942385"
     inkscape:cx="682.66663"
     inkscape:cy="683.88785"
     inkscape:window-width="1920"
     inkscape:window-height="1007"
     inkscape:window-x="1360"
     inkscape:window-y="0"
     inkscape:window-maximized="1"
     inkscape:current-layer="g8" /><g
     id="g8"
     inkscape:groupmode="layer"
     inkscape:label="Tiken-Logo"
     transform="matrix(1.3333333,0,0,-1.3333333,0,1365.3333)"><g
       id="g10"><g
         id="g12"
         clip-path="url(#clipPath16)"><g
           id="g18"
           transform="translate(168.1772,268.3187)"><path
             d="m 0,0 397.363,0.486 c 8.062,33.431 38.051,58.332 73.968,58.406 7.803,0.017 16.02,0.031 24.106,-0.436 l -0.135,64.766 -10.044,-0.021 c -9.984,-0.02 -18.096,8.057 -18.117,18.041 -0.02,9.985 8.057,18.096 18.042,18.116 l 10.044,0.021 -0.11,52.228 -10.043,-0.021 c -9.985,-0.021 -18.095,8.056 -18.116,18.04 -0.021,9.985 8.056,18.096 18.041,18.117 l 10.043,0.021 -0.125,60.262 -10.044,-0.022 c -9.984,-0.021 -18.095,8.057 -18.116,18.042 -0.021,9.984 8.056,18.095 18.041,18.116 l 10.044,0.021 -0.125,60.207 c -4.32,-0.246 -8.976,-0.287 -14.01,-0.095 -40.797,1.559 -79.332,21.791 -90.053,60.063 L 0,464.358 Z"
             style="fill:#4c44c4;fill-opacity:1;fill-rule:nonzero;stroke:none"
             id="path20" /></g><g
           id="g22"
           transform="translate(535.5491,716.4567)"><path
             d="M 0,0 H 142.296"
             style="fill:none;stroke:#4c44c4;stroke-width:6.544;stroke-linecap:butt;stroke-linejoin:miter;stroke-miterlimit:10;stroke-dasharray:none;stroke-opacity:1"
             id="path24" /></g><g
           id="g26"
           transform="translate(541.6307,286.3407)"><path
             d="M 0,0 C 67.724,0.07 134.922,0.07 202.408,0"
             style="fill:none;stroke:#4c44c4;stroke-width:6.544;stroke-linecap:butt;stroke-linejoin:miter;stroke-miterlimit:10;stroke-dasharray:none;stroke-opacity:1"
             id="path28" /></g><g
           id="g30"
           transform="translate(614.6099,465.4334)"><path
             d="M 0,0 C 67.112,0.173 134.31,0.173 201.711,0"
             style="fill:none;stroke:#4c44c4;stroke-width:6.544;stroke-linecap:butt;stroke-linejoin:miter;stroke-miterlimit:10;stroke-dasharray:none;stroke-opacity:1"
             id="path32" /></g><g
           id="g34"
           transform="translate(529.4675,688.5652)"><path
             d="M 0,0 C 75.148,0.174 149.67,0.174 224.83,0"
             style="fill:none;stroke:#4c44c4;stroke-width:6.544;stroke-linecap:butt;stroke-linejoin:miter;stroke-miterlimit:10;stroke-dasharray:none;stroke-opacity:1"
             id="path36" /></g><g
           id="g38"
           transform="translate(646.4859,652.7047)"><path
             d="m 0,0 h 84.045 l 18.761,-35.473 h 77.165"
             style="fill:none;stroke:#4c44c4;stroke-width:6.544;stroke-linecap:butt;stroke-linejoin:miter;stroke-miterlimit:10;stroke-dasharray:none;stroke-opacity:1"
             id="path40" /></g><g
           id="g42"
           transform="translate(634.5324,617.2318)"><path
             d="M 0,0 H 66.689"
             style="fill:none;stroke:#4c44c4;stroke-width:6.544;stroke-linecap:butt;stroke-linejoin:miter;stroke-miterlimit:10;stroke-dasharray:none;stroke-opacity:1"
             id="path44" /></g><g
           id="g46"
           transform="translate(634.5324,489.7278)"><path
             d="M 0,0 H 66.689"
             style="fill:none;stroke:#4c44c4;stroke-width:6.544;stroke-linecap:butt;stroke-linejoin:miter;stroke-miterlimit:10;stroke-dasharray:none;stroke-opacity:1"
             id="path48" /></g><g
           id="g50"
           transform="translate(634.5324,338.317)"><path
             d="M 0,0 H 66.689"
             style="fill:none;stroke:#4c44c4;stroke-width:6.544;stroke-linecap:butt;stroke-linejoin:miter;stroke-miterlimit:10;stroke-dasharray:none;stroke-opacity:1"
             id="path52" /></g><g
           id="g54"
           transform="translate(634.5324,585.3558)"><path
             d="M 0,0 H 109.574"
             style="fill:none;stroke:#4c44c4;stroke-width:6.544;stroke-linecap:butt;stroke-linejoin:miter;stroke-miterlimit:10;stroke-dasharray:none;stroke-opacity:1"
             id="path56" /></g><g
           id="g58"
           transform="translate(634.5324,366.2085)"><path
             d="M 0,0 H 141.45"
             style="fill:none;stroke:#4c44c4;stroke-width:6.544;stroke-linecap:butt;stroke-linejoin:miter;stroke-miterlimit:10;stroke-dasharray:none;stroke-opacity:1"
             id="path60" /></g><g
           id="g62"
           transform="translate(634.5324,560.7842)"><path
             d="m 0,0 h 131.488 l 31.813,24.572 h 66.1"
             style="fill:none;stroke:#4c44c4;stroke-width:6.544;stroke-linecap:butt;stroke-linejoin:miter;stroke-miterlimit:10;stroke-dasharray:none;stroke-opacity:1"
             id="path64" /></g><g
           id="g66"
           transform="translate(638.5169,525.2008)"><path
             d="M 0,0 H 179.325"
             style="fill:none;stroke:#4c44c4;stroke-width:6.544;stroke-linecap:butt;stroke-linejoin:miter;stroke-miterlimit:10;stroke-dasharray:none;stroke-opacity:1"
             id="path68" /></g><g
           id="g70"
           transform="translate(638.5169,466.3433)"><path
             d="m 0,0 c 35.451,0.555 71.204,-0.737 106.096,0.555 6.892,5.6 12.492,12.062 19.384,18.092 1.723,2.154 3.877,3.446 5.6,5.6 0.861,0.862 1.292,1.723 2.154,2.585 1.723,1.292 3.015,3.015 4.738,3.446 26.276,0.431 52.983,0 79.25,0.117"
             style="fill:none;stroke:#4c44c4;stroke-width:6.544;stroke-linecap:butt;stroke-linejoin:miter;stroke-miterlimit:10;stroke-dasharray:none;stroke-opacity:1"
             id="path72" /></g><g
           id="g74"
           transform="translate(630.5479,433.5574)"><path
             d="M 0,0 H 115.357"
             style="fill:none;stroke:#4c44c4;stroke-width:6.544;stroke-linecap:butt;stroke-linejoin:miter;stroke-miterlimit:10;stroke-dasharray:none;stroke-opacity:1"
             id="path76" /></g><g
           id="g78"
           transform="translate(634.5324,400.8497)"><path
             d="m 0,0 c 56.235,0.143 112.665,0.143 169.094,0.143 5.6,-5.6 11.2,-11.2 16.8,-17.231 1.723,-2.153 3.446,-3.876 5.169,-6.03 9.046,0 18.092,0 27.319,0.043"
             style="fill:none;stroke:#4c44c4;stroke-width:6.544;stroke-linecap:butt;stroke-linejoin:miter;stroke-miterlimit:10;stroke-dasharray:none;stroke-opacity:1"
             id="path80" /></g><g
           id="g82"
           transform="translate(547.7123,308.218)"><path
             d="m 0,0 c 65.519,0.161 131.425,0.161 196.9,0.161 10.769,8.615 21.969,16.8 33.169,25.415 14.215,0 27.999,0 42.287,0.151"
             style="fill:none;stroke:#4c44c4;stroke-width:6.544;stroke-linecap:butt;stroke-linejoin:miter;stroke-miterlimit:10;stroke-dasharray:none;stroke-opacity:1"
             id="path84" /></g><g
           id="g86"
           transform="translate(687.6758,716.4567)"><path
             d="m 0,0 c 0,-5.501 -4.46,-9.961 -9.961,-9.961 -5.502,0 -9.961,4.46 -9.961,9.961 0,5.501 4.459,9.961 9.961,9.961 C -4.46,9.961 0,5.501 0,0"
             style="fill:#4c44c4;fill-opacity:1;fill-rule:nonzero;stroke:none"
             id="path88" /></g><g
           id="g90"
           transform="translate(712.2301,616.8442)"><path
             d="m 0,0 c 0,-5.501 -4.46,-9.961 -9.961,-9.961 -5.502,0 -9.961,4.46 -9.961,9.961 0,5.501 4.459,9.961 9.961,9.961 C -4.46,9.961 0,5.501 0,0"
             style="fill:#4c44c4;fill-opacity:1;fill-rule:nonzero;stroke:none"
             id="path92" /></g><g
           id="g94"
           transform="translate(756.0596,584.9683)"><path
             d="m 0,0 c 0,-5.501 -4.46,-9.961 -9.961,-9.961 -5.502,0 -9.961,4.46 -9.961,9.961 0,5.501 4.459,9.961 9.961,9.961 C -4.46,9.961 0,5.501 0,0"
             style="fill:#4c44c4;fill-opacity:1;fill-rule:nonzero;stroke:none"
             id="path96" /></g><g
           id="g98"
           transform="translate(817.8391,517.3719)"><path
             d="m 0,0 c -4.324,-3.402 -10.586,-2.654 -13.988,1.67 -3.402,4.324 -2.654,10.586 1.67,13.988 4.324,3.401 10.586,2.654 13.988,-1.67 C 5.071,9.664 4.324,3.402 0,0"
             style="fill:#4c44c4;fill-opacity:1;fill-rule:nonzero;stroke:none"
             id="path100" /></g><g
           id="g102"
           transform="translate(870.1765,489.4804)"><path
             d="m 0,0 c -4.324,-3.402 -10.586,-2.654 -13.988,1.67 -3.402,4.324 -2.654,10.586 1.67,13.988 4.324,3.401 10.586,2.654 13.988,-1.67 C 5.071,9.664 4.324,3.402 0,0"
             style="fill:#4c44c4;fill-opacity:1;fill-rule:nonzero;stroke:none"
             id="path104" /></g><g
           id="g106"
           transform="translate(766.0731,688.673)"><path
             d="m 0,0 c 0,-5.501 -4.46,-9.961 -9.961,-9.961 -5.502,0 -9.961,4.46 -9.961,9.961 0,5.501 4.459,9.961 9.961,9.961 C -4.46,9.961 0,5.501 0,0"
             style="fill:#4c44c4;fill-opacity:1;fill-rule:nonzero;stroke:none"
             id="path108" /></g><g
           id="g110"
           transform="translate(831.764,616.8442)"><path
             d="m 0,0 c 0,-5.501 -4.46,-9.961 -9.961,-9.961 -5.502,0 -9.961,4.46 -9.961,9.961 0,5.501 4.459,9.961 9.961,9.961 C -4.46,9.961 0,5.501 0,0"
             style="fill:#4c44c4;fill-opacity:1;fill-rule:nonzero;stroke:none"
             id="path112" /></g><g
           id="g114"
           transform="translate(874.0862,584.9683)"><path
             d="m 0,0 c 0,-5.501 -4.46,-9.961 -9.961,-9.961 -5.502,0 -9.961,4.46 -9.961,9.961 0,5.501 4.459,9.961 9.961,9.961 C -4.46,9.961 0,5.501 0,0"
             style="fill:#4c44c4;fill-opacity:1;fill-rule:nonzero;stroke:none"
             id="path116" /></g><g
           id="g118"
           transform="translate(716.2146,489.3404)"><path
             d="m 0,0 c 0,-5.501 -4.46,-9.961 -9.961,-9.961 -5.502,0 -9.961,4.46 -9.961,9.961 0,5.501 4.459,9.961 9.961,9.961 C -4.46,9.961 0,5.501 0,0"
             style="fill:#4c44c4;fill-opacity:1;fill-rule:nonzero;stroke:none"
             id="path120" /></g><g
           id="g122"
           transform="translate(759.2888,433.5574)"><path
             d="m 0,0 c 0,-5.501 -4.46,-9.961 -9.961,-9.961 -5.502,0 -9.961,4.46 -9.961,9.961 0,5.501 4.459,9.961 9.961,9.961 C -4.46,9.961 0,5.501 0,0"
             style="fill:#4c44c4;fill-opacity:1;fill-rule:nonzero;stroke:none"
             id="path124" /></g><g
           id="g126"
           transform="translate(831.6562,465.4334)"><path
             d="m 0,0 c 0,-5.501 -4.46,-9.961 -9.961,-9.961 -5.502,0 -9.961,4.46 -9.961,9.961 0,5.501 4.459,9.961 9.961,9.961 C -4.46,9.961 0,5.501 0,0"
             style="fill:#4c44c4;fill-opacity:1;fill-rule:nonzero;stroke:none"
             id="path128" /></g><g
           id="g130"
           transform="translate(787.9355,365.821)"><path
             d="m 0,0 c 0,-5.501 -4.46,-9.961 -9.961,-9.961 -5.502,0 -9.961,4.46 -9.961,9.961 0,5.501 4.459,9.961 9.961,9.961 C -4.46,9.961 0,5.501 0,0"
             style="fill:#4c44c4;fill-opacity:1;fill-rule:nonzero;stroke:none"
             id="path132" /></g><g
           id="g134"
           transform="translate(754.228,286.3407)"><path
             d="m 0,0 c 0,-5.501 -4.46,-9.961 -9.961,-9.961 -5.502,0 -9.961,4.46 -9.961,9.961 0,5.501 4.459,9.961 9.961,9.961 C -4.46,9.961 0,5.501 0,0"
             style="fill:#4c44c4;fill-opacity:1;fill-rule:nonzero;stroke:none"
             id="path136" /></g><g
           id="g138"
           transform="translate(869.7784,377.7744)"><path
             d="m 0,0 c 0,-5.501 -4.46,-9.961 -9.961,-9.961 -5.502,0 -9.961,4.46 -9.961,9.961 0,5.501 4.459,9.961 9.961,9.961 C -4.46,9.961 0,5.501 0,0"
             style="fill:#4c44c4;fill-opacity:1;fill-rule:nonzero;stroke:none"
             id="path140" /></g><g
           id="g142"
           transform="translate(831.6563,333.945)"><path
             d="m 0,0 c 0,-5.501 -4.46,-9.961 -9.961,-9.961 -5.502,0 -9.961,4.46 -9.961,9.961 0,5.501 4.459,9.961 9.961,9.961 C -4.46,9.961 0,5.501 0,0"
             style="fill:#4c44c4;fill-opacity:1;fill-rule:nonzero;stroke:none"
             id="path144" /></g><g
           id="g146"
           transform="translate(712.2301,337.9295)"><path
             d="m 0,0 c 0,-5.501 -4.46,-9.961 -9.961,-9.961 -5.502,0 -9.961,4.46 -9.961,9.961 0,5.501 4.459,9.961 9.961,9.961 C -4.46,9.961 0,5.501 0,0"
             style="fill:#4c44c4;fill-opacity:1;fill-rule:nonzero;stroke:none"
             id="path148" /></g></g></g></g></svg>
